<?xml version="1.0" encoding="UTF-8" standalone="no"?><!-- Generator: Gravit.io --><svg xmlns="http://www.w3.org/2000/svg" xmlns:xlink="http://www.w3.org/1999/xlink" style="isolation:isolate" viewBox="0 0 24 24" width="24pt" height="24pt"><defs><clipPath id="_clipPath_aqg1wKi54MyEjp0m9fFuUG1ClfgB437m"><rect width="24" height="24"/></clipPath></defs><g clip-path="url(#_clipPath_aqg1wKi54MyEjp0m9fFuUG1ClfgB437m)"><linearGradient id="_lgradient_0" x1="0" y1="0.5" x2="1" y2="0.5" gradientTransform="matrix(24,0,0,24,0,0)" gradientUnits="userSpaceOnUse"><stop offset="0%" stop-opacity="1" style="stop-color:rgb(113,90,255)"/><stop offset="97.82608695652173%" stop-opacity="1" style="stop-color:rgb(143,117,244)"/></linearGradient><path d=" M 0 8.867 L 0 6.033 L 6.033 0 L 8.867 0 L 0 8.867 Z  M 0 2.333 L 0 0 L 2.333 0 L 0 2.333 Z  M 17.567 4.567 Q 17.233 4.2 16.851 3.851 Q 16.468 3.501 16.067 3.233 L 19.3 0 L 22.133 0 L 17.567 4.567 Z  M 3.333 15.967 L 5.9 13.4 Q 6.133 13.767 6.384 14.067 Q 6.635 14.367 6.933 14.633 Q 6 14.867 5.051 15.217 Q 4.101 15.568 3.333 15.967 Z  M 19.333 9.4 L 19.333 9.333 Q 19.333 8.7 19.233 8.1 Q 19.133 7.5 18.933 6.933 L 24 1.867 L 24 4.733 L 19.333 9.4 Z  M 10.533 2.133 L 12.7 0 L 15.533 0 L 13.4 2.133 Q 13.033 2.067 12.7 2.033 Q 12.367 2 12 2 Q 11.633 2 11.267 2.033 Q 10.9 2.067 10.533 2.133 Z  M 0 15.5 L 0 12.667 L 4.8 7.867 Q 4.733 8.233 4.7 8.6 Q 4.667 8.967 4.667 9.333 Q 4.667 9.7 4.7 10.033 Q 4.733 10.367 4.8 10.7 L 0 15.5 Z  M 23.633 18.267 Q 23.367 17.867 23.017 17.5 Q 22.668 17.133 22.267 16.833 L 24 15.1 L 24 17.933 L 23.633 18.267 Z  M 19.767 15.533 Q 19.533 15.433 19.3 15.349 Q 19.067 15.265 18.833 15.2 Q 18.533 15.1 18.251 15 Q 17.968 14.9 17.667 14.833 L 24 8.467 L 24 11.333 L 19.767 15.533 Z  M 12 14.667 Q 9.8 14.667 8.233 13.1 Q 6.667 11.533 6.667 9.333 Q 6.667 7.133 8.233 5.567 Q 9.8 4 12 4 Q 14.2 4 15.767 5.567 Q 17.333 7.133 17.333 9.333 Q 17.333 11.533 15.767 13.1 Q 14.2 14.667 12 14.667 Z  M 1.333 24 L 1.333 21.633 Q 1.333 20.5 1.9 19.533 Q 2.467 18.567 3.467 18.067 Q 5.167 17.2 7.317 16.6 Q 9.468 16 12 16 Q 14.533 16 16.684 16.6 Q 18.835 17.2 20.533 18.067 Q 21.533 18.567 22.1 19.533 Q 22.667 20.5 22.667 21.633 L 22.667 24 L 1.333 24 Z " fill="url(#_lgradient_0)"/></g></svg>